<?xml version="1.0" encoding="utf-8"?>
<!-- Generator: Adobe Illustrator 17.0.0, SVG Export Plug-In . SVG Version: 6.00 Build 0)  -->
<!DOCTYPE svg PUBLIC "-//W3C//DTD SVG 1.1//EN" "http://www.w3.org/Graphics/SVG/1.1/DTD/svg11.dtd">
<svg version="1.1" id="Layer_1" xmlns="http://www.w3.org/2000/svg" xmlns:xlink="http://www.w3.org/1999/xlink" x="0px" y="0px"
	 width="266.987px" height="137.993px" viewBox="0 0 266.987 137.993" enable-background="new 0 0 266.987 137.993"
	 xml:space="preserve">
<circle fill="#F4F5F5" cx="77.69" cy="65.942" r="44"/>
<g>
	<path fill="#F4F5F5" d="M129.676,38.811c0-3.651-0.235-3.887-2.002-4.24l-0.982-0.196c-0.314-0.235-0.353-1.099,0.079-1.334
		c1.885,0.078,3.848,0.118,5.732,0.118c1.923,0,3.847-0.04,5.732-0.118c0.314,0.235,0.314,1.099,0,1.334l-0.942,0.157
		c-1.767,0.314-2.002,0.628-2.002,4.279v9.069c0,4.594,0.511,9.658,6.478,9.658c5.025,0,6.557-4.397,6.557-9.776v-4.75
		c0-3.18-0.157-6.164-0.589-7.185c-0.354-0.825-1.217-1.06-2.277-1.257l-1.06-0.196c-0.314-0.314-0.236-1.099,0-1.334
		c2.12,0.078,3.651,0.118,5.261,0.118c1.453,0,2.905-0.04,4.397-0.118c0.235,0.235,0.314,1.021,0,1.334l-0.707,0.157
		c-1.021,0.236-1.767,0.471-2.12,1.296c-0.432,1.021-0.589,4.004-0.589,7.185v4.397c0,3.691-0.353,7.067-2.513,9.462
		c-1.728,1.845-4.593,2.827-7.773,2.827c-2.984,0-5.654-0.471-7.774-2.198c-2.042-1.688-2.905-4.594-2.905-8.873V38.811z"/>
	<path fill="#F4F5F5" d="M164.458,36.102c0-0.942,0-1.138-0.942-1.138h-2.434c-2.866,0-3.691,1.57-4.869,4.436
		c-0.471,0.236-1.217,0.157-1.453-0.353c0.825-2.709,1.021-5.143,1.296-6.674c0.157-0.118,0.353-0.196,0.549-0.196
		s0.393,0.039,0.55,0.157c0.196,0.667,0.314,0.825,3.298,0.825h14.605c2.591,0,3.18-0.04,3.534-0.864
		c0.157-0.079,0.275-0.118,0.51-0.118c0.236,0,0.51,0.157,0.589,0.275c-0.393,1.334-0.667,4.515-0.589,6.752
		c-0.196,0.354-1.256,0.432-1.453,0.118c-0.667-2.513-1.217-4.358-4.162-4.358h-2.355c-0.942,0-1.06,0.118-1.06,1.138v17.314
		c0,3.651,0.235,3.965,2.002,4.201l1.571,0.196c0.275,0.235,0.275,1.139,0,1.374c-2.552-0.079-4.515-0.118-6.282-0.118
		c-1.885,0-3.926,0.039-6.674,0.118c-0.314-0.235-0.314-1.139,0-1.374l1.767-0.196c1.767-0.196,2.002-0.55,2.002-4.201V36.102z"/>
	<path fill="#F4F5F5" d="M189.857,53.337c0,3.69,0.236,3.965,2.042,4.279l1.099,0.196c0.314,0.235,0.275,1.139-0.039,1.374
		c-2.12-0.079-4.044-0.118-5.889-0.118c-1.885,0-3.848,0.039-5.968,0.118c-0.314-0.235-0.314-1.139,0-1.374l1.099-0.196
		c1.806-0.314,2.042-0.589,2.042-4.279V38.889c0-3.69-0.235-3.965-2.042-4.279l-1.099-0.196c-0.314-0.236-0.314-1.139,0-1.374
		c2.12,0.078,4.083,0.118,5.968,0.118c1.845,0,3.808-0.04,5.928-0.118c0.314,0.235,0.314,1.138,0,1.374l-1.099,0.196
		c-1.806,0.314-2.042,0.589-2.042,4.279V53.337z"/>
	<path fill="#F4F5F5" d="M210.82,49.765c-0.903,0-0.981,0.079-0.981,0.707c0,2.945,1.884,5.811,5.536,5.811
		c1.1,0,2.591-0.235,3.651-2.042c0.432-0.079,1.021,0.235,1.021,0.903c-1.61,3.337-4.515,4.476-6.871,4.476
		c-5.3,0-8.167-3.73-8.167-8.009c0-4.947,3.573-8.794,8.48-8.794c4.083,0,6.282,2.63,6.282,5.653c0,0.746-0.196,1.296-1.414,1.296
		H210.82z M213.412,48.037c0.55,0,1.178-0.079,1.61-0.354c0.196-0.118,0.274-0.51,0.274-0.903c0-1.296-0.746-2.16-2.081-2.16
		c-1.649,0-3.062,1.571-3.062,2.827c0,0.549,0.55,0.589,1.806,0.589H213.412z"/>
	<path fill="#F4F5F5" d="M228.918,45.485c-0.511,0-0.55,0.04-0.55,0.903v5.889c0,2.198,0,4.633,2.749,4.633
		c0.549,0,1.178-0.275,1.649-0.589c0.393,0.118,0.628,0.549,0.549,1.021c-1.099,1.178-3.219,2.277-5.653,2.277
		c-3.259,0-4.397-1.885-4.397-4.476v-8.755c0-0.825-0.039-0.903-0.746-0.903h-1.217c-0.432-0.157-0.55-0.942-0.235-1.217
		c1.217-0.432,2.316-1.139,3.258-1.767c0.707-0.511,1.688-1.335,2.905-3.062c0.275-0.157,0.981-0.118,1.178,0.196v2.944
		c0,0.746,0.04,0.786,0.746,0.786h3.494c0.196,0.157,0.314,0.393,0.314,0.746c0,0.432-0.118,1.139-0.511,1.374H228.918z"/>
	<path fill="#F4F5F5" d="M133.445,97.306c-0.942,0-1.06,0.04-1.295,0.785l-1.531,4.554c-0.235,0.786-0.275,1.1-0.275,1.414
		c0,0.235,0.51,0.471,1.61,0.667l1.178,0.196c0.235,0.275,0.314,1.178-0.079,1.374c-1.374-0.079-2.788-0.079-4.437-0.118
		c-1.335,0-2.238,0.118-4.044,0.118c-0.432-0.235-0.393-1.06-0.118-1.374l1.06-0.118c0.942-0.118,1.728-0.432,2.395-1.963
		c0.667-1.57,1.414-3.455,2.474-6.282l3.573-9.58c0.903-2.473,1.57-3.847,1.453-4.986c1.884-0.432,3.337-2.356,3.416-2.356
		c0.51,0,0.746,0.196,0.903,0.786c0.314,1.138,0.785,2.591,1.767,5.378l5.339,15.39c0.824,2.356,1.178,3.259,2.63,3.495l1.492,0.235
		c0.236,0.196,0.314,1.139-0.039,1.374c-1.884-0.079-4.004-0.118-6.046-0.118c-1.963,0-3.494,0.039-5.3,0.118
		c-0.432-0.235-0.511-1.06-0.079-1.374l1.256-0.196c0.903-0.157,1.06-0.432,1.06-0.667c0-0.275-0.275-1.217-0.746-2.67l-1.06-3.376
		c-0.196-0.628-0.51-0.707-1.884-0.707H133.445z M137.921,95.225c0.903,0,1.099-0.118,0.785-1.139l-1.021-3.18
		c-0.55-1.688-1.256-3.808-1.609-4.633c-0.314,0.903-1.1,3.023-1.688,4.829l-0.981,2.944c-0.354,1.06-0.157,1.178,0.824,1.178
		H137.921z"/>
	<path fill="#F4F5F5" d="M154.369,86.666c0-3.965-0.078-4.358-1.728-4.593l-1.06-0.157c-0.353-0.196-0.432-1.374,0.157-1.414
		c2.984-0.196,5.85-0.353,9.776-0.353c3.769,0,6.282,0.432,8.009,1.453c1.688,1.021,2.709,2.669,2.709,4.986
		c0,3.298-2.788,4.594-4.004,4.908c-0.393,0.079-0.785,0.235-0.785,0.432c0,0.118,0.196,0.235,0.549,0.314
		c3.102,0.667,5.732,2.709,5.771,6.517c0.039,3.612-2.12,5.732-4.594,6.596c-2.473,0.864-5.418,0.982-7.812,0.982
		c-1.414,0-2.905-0.157-4.044-0.157c-1.924,0-3.848,0.039-6.085,0.118c-0.314-0.235-0.314-1.256,0-1.374l1.139-0.235
		c1.767-0.354,2.002-0.628,2.002-4.162V86.666z M159.787,90.475c0,1.021,0.04,1.099,2.081,1.099c3.376,0,4.633-2.159,4.633-4.515
		c0-3.416-2.12-5.104-4.829-5.104c-1.845,0-1.885,0.314-1.885,2.042V90.475z M159.787,99.543c0,3.062,0.393,4.986,3.455,4.986
		c2.905,0,4.437-2.238,4.437-5.418c0-3.416-1.963-5.811-5.732-5.811c-2.16,0-2.16,0.039-2.16,1.609V99.543z"/>
	<path fill="#F4F5F5" d="M179.101,85.92c0-3.651-0.235-3.887-2.002-4.24l-0.982-0.196c-0.314-0.235-0.353-1.099,0.079-1.334
		c1.885,0.078,3.848,0.118,5.732,0.118c1.923,0,3.847-0.04,5.732-0.118c0.314,0.235,0.314,1.099,0,1.334l-0.942,0.157
		c-1.767,0.314-2.002,0.628-2.002,4.279v9.069c0,4.594,0.511,9.658,6.478,9.658c5.025,0,6.557-4.397,6.557-9.776v-4.75
		c0-3.18-0.157-6.164-0.589-7.185c-0.353-0.825-1.217-1.06-2.277-1.257l-1.06-0.196c-0.314-0.314-0.236-1.099,0-1.334
		c2.12,0.078,3.651,0.118,5.261,0.118c1.453,0,2.905-0.04,4.397-0.118c0.235,0.235,0.314,1.021,0,1.334l-0.707,0.157
		c-1.021,0.236-1.767,0.471-2.12,1.296c-0.432,1.021-0.589,4.004-0.589,7.185v4.397c0,3.691-0.353,7.067-2.513,9.462
		c-1.728,1.845-4.593,2.827-7.773,2.827c-2.984,0-5.654-0.471-7.774-2.198c-2.042-1.688-2.905-4.594-2.905-8.873V85.92z"/>
	<path fill="#F4F5F5" d="M213.884,83.211c0-0.942,0-1.138-0.942-1.138h-2.434c-2.866,0-3.691,1.57-4.869,4.436
		c-0.471,0.236-1.217,0.157-1.453-0.353c0.825-2.709,1.021-5.143,1.296-6.674c0.157-0.118,0.353-0.196,0.549-0.196
		s0.393,0.039,0.55,0.157c0.196,0.667,0.314,0.825,3.298,0.825h14.605c2.591,0,3.18-0.04,3.534-0.864
		c0.157-0.079,0.275-0.118,0.51-0.118c0.236,0,0.51,0.157,0.589,0.275c-0.393,1.334-0.667,4.515-0.589,6.752
		c-0.196,0.354-1.256,0.432-1.453,0.118c-0.667-2.513-1.217-4.358-4.162-4.358h-2.355c-0.942,0-1.06,0.118-1.06,1.138v17.314
		c0,3.651,0.235,3.965,2.002,4.201l1.571,0.196c0.274,0.235,0.274,1.139,0,1.374c-2.552-0.079-4.515-0.118-6.282-0.118
		c-1.885,0-3.926,0.039-6.674,0.118c-0.314-0.235-0.314-1.139,0-1.374l1.767-0.196c1.767-0.196,2.002-0.55,2.002-4.201V83.211z"/>
	<path fill="#F4F5F5" d="M239.283,100.447c0,3.69,0.236,3.965,2.042,4.279l1.099,0.196c0.314,0.235,0.275,1.139-0.04,1.374
		c-2.12-0.079-4.043-0.118-5.889-0.118c-1.885,0-3.848,0.039-5.968,0.118c-0.314-0.235-0.314-1.139,0-1.374l1.099-0.196
		c1.806-0.314,2.042-0.589,2.042-4.279V85.998c0-3.69-0.235-3.965-2.042-4.279l-1.099-0.196c-0.314-0.236-0.314-1.139,0-1.374
		c2.12,0.078,4.083,0.118,5.968,0.118c1.845,0,3.808-0.04,5.928-0.118c0.314,0.235,0.314,1.138,0,1.374l-1.099,0.196
		c-1.806,0.314-2.042,0.589-2.042,4.279V100.447z"/>
</g>
<g>
	<g>
		<g>
			<path fill="#F4F5F5" d="M82.432,93.877c1.762,0.012,3.459-0.147,5.075-0.899c0.87-0.404,1.764-0.758,2.655-1.115
				c1.938-0.774,3.984-1.273,5.77-2.429c1.804-1.168,3.692-2.208,5.487-3.39c1.488-0.98,3.062-1.92,4.292-3.177
				c1.354-1.384,2.447-3.054,3.493-4.701c1.27-1.998,2.289-4.156,3.573-6.144c1.028-1.592,1.292-3.279,1.006-5.046
				c-0.437-2.706-0.859-5.434-1.596-8.066c-0.657-2.347-1.771-4.536-3.935-5.987c-0.694-0.465-1.296-1.086-1.878-1.696
				c-1.627-1.705-3.458-3.083-5.68-3.944c-2.456-0.951-5.043-1.07-7.609-1.239c-2.238-0.148-4.496-0.152-6.619-0.938
				c-3.833-1.419-7.668-2.793-11.8-3.023c-1.118-0.062-2.284-0.291-3.345-0.062c-1.253,0.271-2.52,0.796-3.596,1.496
				c-2.259,1.468-4.922,1.846-7.303,2.961c-1.254,0.587-2.563,1.055-3.834,1.609c-1.998,0.871-3.981,1.777-5.977,2.653
				c-2.361,1.037-4.625,2.191-5.936,4.585c-0.313,0.571-0.609,1.156-0.978,1.691c-1.541,2.237-2.244,4.7-2.152,7.414
				c0.029,0.874,0.039,1.779-0.147,2.624c-0.569,2.592-0.561,5.16-0.103,7.77c0.4,2.279,0.149,4.662,1.034,6.867
				c0.481,1.2,0.815,2.537,1.584,3.527c1.363,1.755,3.275,2.827,5.46,3.402c3.223,0.847,6.581,1.218,9.627,2.698
				c0.225,0.109,0.488,0.168,0.739,0.188c1.891,0.152,3.803,0.526,5.671,0.371c2.555-0.211,4.938,0.569,7.405,0.812
				C76.029,93.005,79.227,93.474,82.432,93.877z"/>
			<path d="M82.432,93.877c-3.205-0.403-6.403-0.871-9.616-1.188c-2.468-0.243-4.85-1.024-7.405-0.812
				c-1.868,0.155-3.78-0.22-5.671-0.371c-0.25-0.02-0.514-0.079-0.739-0.188c-3.047-1.48-6.405-1.851-9.627-2.698
				c-2.186-0.575-4.098-1.647-5.46-3.402c-0.769-0.99-1.102-2.327-1.584-3.527c-0.884-2.205-0.633-4.588-1.034-6.867
				c-0.459-2.61-0.466-5.178,0.103-7.77c0.186-0.846,0.176-1.75,0.147-2.624c-0.091-2.714,0.612-5.177,2.152-7.414
				c0.368-0.535,0.665-1.12,0.978-1.691c1.311-2.395,3.575-3.549,5.936-4.585c1.996-0.876,3.979-1.782,5.977-2.653
				c1.271-0.554,2.58-1.022,3.834-1.609c2.381-1.115,5.044-1.493,7.303-2.961c1.076-0.699,2.344-1.225,3.596-1.496
				c1.061-0.23,2.227,0,3.345,0.062c4.132,0.23,7.967,1.604,11.8,3.023c2.123,0.786,4.382,0.79,6.619,0.938
				c2.566,0.17,5.152,0.288,7.609,1.239c2.222,0.861,4.053,2.239,5.68,3.944c0.582,0.609,1.184,1.231,1.878,1.696
				c2.164,1.452,3.278,3.64,3.935,5.987c0.737,2.632,1.159,5.36,1.596,8.066c0.285,1.767,0.022,3.454-1.006,5.046
				c-1.284,1.988-2.303,4.146-3.573,6.144c-1.046,1.647-2.139,3.317-3.493,4.701c-1.23,1.257-2.804,2.197-4.292,3.177
				c-1.795,1.182-3.682,2.222-5.487,3.39c-1.786,1.157-3.832,1.655-5.77,2.429c-0.891,0.356-1.785,0.71-2.655,1.115
				C85.891,93.729,84.194,93.889,82.432,93.877z M85.464,92.845c0.028,0.089,0.056,0.179,0.084,0.268
				c0.334-0.109,0.715-0.149,0.994-0.339c1.547-1.048,3.087-2.109,4.591-3.217c0.578-0.426,1.055-0.988,1.577-1.49
				c0.121-0.117,0.217-0.301,0.36-0.348c1.738-0.566,2.869-1.993,4.294-3.001c0.231-0.163,0.5-0.273,0.751-0.407
				c0.026,0.055,0.051,0.11,0.077,0.165c-1.187,1.185-2.374,2.369-3.56,3.554c0.061,0.059,0.121,0.118,0.182,0.177
				c0.587-0.314,0.796-1.282,1.763-1.064c-0.129,0.332-0.237,0.608-0.333,0.853c0.361-0.355,0.663-0.901,1.089-1.027
				c1.57-0.463,3.132-0.866,4.515-1.83c1.059-0.738,2.299-1.182,3.087-2.323c0.775-1.122,1.693-2.145,2.476-3.121
				c-0.919,0.257-1.99,0.55-3.057,0.855c-1.062,0.304-2.121,0.621-3.339,0.98c1.128-1.984,3.161-1.363,4.602-2.185
				c-0.832,0.088-1.663,0.175-2.495,0.263c0.772-0.42,1.586-0.594,2.35-0.897c0.787-0.312,1.524-0.751,2.284-1.133
				c0.127-0.064,0.251-0.139,0.386-0.178c1.503-0.432,2.004-1.03,2.215-2.772c-1.172,1.721-2.918,2.304-4.63,3.051
				c-1.741,0.76-3.476,1.198-5.36,1.177c2.67-1.12,5.563-1.653,7.997-3.294c-0.018-0.084-0.036-0.167-0.054-0.251
				c-1.974,0.371-3.948,0.741-5.923,1.112c-0.025-0.076-0.049-0.153-0.074-0.229c0.862-0.305,1.719-0.624,2.586-0.91
				c1.111-0.366,2.232-0.706,3.348-1.057c-0.025-0.088-0.051-0.176-0.076-0.264c-1.386,0.17-2.778,0.302-4.156,0.521
				c-1.425,0.227-2.833,0.567-4.256,0.807c-1.351,0.228-2.641,0.885-4.078,0.591c0.454-0.242,0.922-0.429,1.408-0.535
				c1.097-0.24,2.268-0.276,3.291-0.689c2.623-1.061,5.321-1.66,8.129-1.493c0.816,0.049,1.258-0.229,1.767-0.685
				c0.489-0.438,1.01-0.841,1.516-1.259c0.072,0.052,0.144,0.105,0.216,0.157c-0.387,0.679-0.774,1.357-1.086,1.903
				c0.339,0.201,0.47,0.278,0.627,0.371c0.556-1.867,2.087-3.371,2.006-5.426c-1.219,0.188-2.411,0.372-3.604,0.556
				c-0.014-0.051-0.028-0.101-0.042-0.152c0.909-0.33,1.818-0.659,2.727-0.989c-0.027-0.095-0.055-0.19-0.082-0.284
				c-0.872,0.049-1.743,0.099-2.615,0.148c0.666-0.29,1.352-0.406,2.032-0.553c0.959-0.207,1.256-0.635,1.212-1.689
				c-1.284,0.867-3.203,1.301-3.81,0.933c0.696-0.19,1.474-0.351,2.216-0.615c1.185-0.422,1.47-1.114,1.035-2.484
				c-0.108,0.564-0.199,1.038-0.32,1.667c-0.465-0.901-1.029-0.793-1.635-0.365c-0.069,0.048-0.149,0.087-0.23,0.109
				c-2.802,0.756-5.604,1.51-8.406,2.264c0.587-0.725,1.331-1.138,2.227-1.335c1.396-0.308,2.78-0.672,4.169-1.012
				c-0.019-0.09-0.039-0.179-0.058-0.269c-1.127,0.197-2.253,0.394-3.38,0.591c-0.016-0.085-0.032-0.17-0.048-0.254
				c0.224-0.073,0.442-0.182,0.671-0.212c1.59-0.207,3.179-0.426,4.775-0.584c1.074-0.107,2.028-1.049,2.014-2.127
				c-0.004-0.337-0.027-0.69-0.131-1.006c-0.469-1.421-0.646-2.927-1.9-4.055c-0.804-0.723-1.686-0.597-2.571-0.92
				c0.521-0.092,1.042-0.184,1.563-0.275c-0.005-0.076-0.01-0.151-0.015-0.227c-0.564-0.032-1.129-0.065-1.693-0.097
				c-0.007-0.061-0.014-0.122-0.021-0.183c0.606-0.143,1.212-0.285,1.818-0.428c-0.462-0.399-0.957-0.792-1.429-0.768
				c-1.034,0.053-2.058,0.312-3.084,0.498c-1.081,0.196-2.16,0.406-3.24,0.61c-0.026-0.114-0.052-0.228-0.078-0.341
				c0.883-0.236,1.763-0.483,2.649-0.703c0.864-0.214,1.736-0.401,2.604-0.599c-0.023-0.112-0.046-0.224-0.069-0.336
				c-1.85,0.13-3.7,0.261-5.549,0.391c-0.003-0.072-0.006-0.144-0.008-0.216c1.618-0.286,3.236-0.573,4.854-0.859
				c-0.013-0.058-0.027-0.115-0.04-0.173c-0.846-0.046-1.693-0.092-2.762-0.15c0.553-0.218,0.906-0.358,1.324-0.523
				c-1.97-1-3.907,0.295-5.83-0.14c1.348-0.902,3.009-0.477,4.588-1.057c-0.266-0.122-0.431-0.197-0.596-0.273
				c0.073-0.102,0.146-0.204,0.219-0.306c0.635,0.339,1.269,0.677,1.817,0.97c-0.527-1.055-1.354-1.34-2.55-1.005
				c-1.545,0.432-3.126,0.736-4.692,1.095c1.375-1.318,3.273-0.933,5.076-1.755c-1.873-1.371-3.867-1.308-5.792-1.475
				c0.04-0.095,0.1-0.237,0.235-0.558c-1.636-0.129-3.171-0.324-4.708-0.349c-1.583-0.026-3.14,0-4.719-0.338
				c-1.128-0.242-2.359-0.127-3.528-0.013c-0.828,0.08-1.627,0.437-2.445,0.647c-0.682,0.175-1.385,0.273-2.056,0.481
				c-0.842,0.261-1.661,0.6-2.49,0.905c-0.045-0.059-0.09-0.118-0.135-0.177c0.236-0.238,0.43-0.566,0.715-0.695
				c0.693-0.315,1.442-0.506,2.144-0.805c0.792-0.339,1.623-0.649,2.311-1.146c0.547-0.395,1.038-0.495,1.644-0.368
				c0.277,0.058,0.558,0.1,0.837,0.149c0.018-0.111,0.035-0.221,0.053-0.332c-2.887-0.224-5.45-2.214-8.705-1.216
				c0.297-0.328,0.458-0.505,0.619-0.682c-0.057-0.069-0.114-0.138-0.171-0.207c-0.749,0.475-1.517,0.923-2.243,1.431
				c-0.755,0.529-1.441,1.16-2.21,1.666c-0.681,0.447-1.426,0.8-2.16,1.161c-0.367,0.181-0.771,0.286-1.109,0.408
				c0.302-0.349,0.599-0.676,0.879-1.017c0.41-0.499,0.731-1.107,1.228-1.491c0.916-0.707,1.932-1.283,2.903-1.919
				c0.06-0.039,0.087-0.128,0.128-0.19c-0.05-0.057-0.084-0.133-0.122-0.134c-2.461-0.089-4.644,0.57-6.244,2.536
				c-0.485,0.596-1.008,0.826-1.723,0.865c-0.589,0.032-1.21,0.054-1.753,0.252c-1,0.366-1.896,1.027-3.039,0.963
				c-0.143-0.008-0.293,0.157-0.445,0.23c-0.831,0.398-1.664,0.794-2.497,1.187c-0.597,0.282-1.347,0.374-1.526,1.022
				c1.146-0.464,2.329-0.944,3.493-1.416c0.108,0.191,0.224,0.398,0.341,0.606c-0.232,0.137-0.464,0.273-0.698,0.411
				c1.376,0,2.722,0,4.068,0c0,0.086,0.001,0.173,0.002,0.259c-1.614,0.166-3.228,0.333-4.842,0.499
				c0.005,0.019,0.011,0.038,0.016,0.057c1.554,0,3.107,0,4.661,0c-0.167,0.233-0.378,0.302-0.589,0.371
				c-0.341,0.113-0.684,0.219-1.021,0.342c-0.357,0.13-0.705,0.286-1.064,0.414c-0.808,0.288-1.615,0.723-1.818,1.708
				c-0.068,0.331-0.572,0.748-0.932,0.81c-0.997,0.172-2.023,0.168-3.036,0.256c-0.277,0.024-0.548,0.126-0.821,0.192
				c1.439,0.093,2.84,0.014,4.24-0.066c0.028-0.002,0.055-0.015,0.083-0.02c1.714-0.3,3.374-0.189,5.061,0.558
				c-0.252,0.201-0.381,0.303-0.54,0.431c1.188-0.053,2.293-0.103,3.398-0.153c0.004,0.092,0.008,0.184,0.013,0.276
				c-2.584,0.161-5.169,0.311-7.751,0.492c-0.435,0.031-0.904,0.112-1.281,0.313c-0.913,0.486-1.781,1.057-2.667,1.593
				c0.025,0.085,0.05,0.169,0.076,0.254c1.307,0,2.615,0,3.922,0c0.008,0.092,0.017,0.184,0.025,0.277
				c-3.312,0.062-6.569,0.424-9.708,1.44c0.015,0.072,0.03,0.145,0.046,0.217c0.456-0.121,0.912-0.241,1.304-0.345
				c0.159,0.125,0.281,0.3,0.42,0.315c0.412,0.045,0.831,0.039,1.246,0.03c0.594-0.013,1.189-0.029,1.782-0.075
				c1.067-0.083,2.132-0.195,3.2-0.275c0.135-0.01,0.28,0.105,0.42,0.162c0.002,0.071,0.005,0.142,0.007,0.213
				c-1.772,0.293-3.544,0.586-5.316,0.879c0.003,0.044,0.006,0.088,0.009,0.132c0.791,0.042,1.581,0.083,2.423,0.128
				c-0.432,0.266-0.825,0.509-1.279,0.789c0.501,0.441,0.885,1.03,1.399,1.182c1.238,0.367,2.53,0.7,3.81,0.743
				c3.116,0.103,6.238,0.034,9.357,0.034c0.494,0,0.987,0,1.481,0c0.003,0.072,0.006,0.144,0.009,0.217
				c-0.889,0.042-1.78,0.056-2.666,0.132c-2.429,0.208-4.847,0.358-7.28-0.05c-0.772-0.129-1.597,0.059-2.397,0.115
				c-0.033,0.002-0.056,0.135-0.117,0.291c0.758,0,1.462,0,2.165,0c-0.461,0.212-0.93,0.252-1.393,0.33
				c-0.223,0.037-0.434,0.145-0.65,0.221c0.172,0.192,0.315,0.43,0.526,0.558c0.141,0.086,0.378,0.032,0.571,0.016
				c1.998-0.165,3.995-0.364,5.995-0.486c0.655-0.04,1.321,0.117,1.982,0.184c-0.004,0.073-0.008,0.145-0.012,0.218
				c-1.099,0-2.197,0-3.296,0c-0.003,0.072-0.006,0.144-0.01,0.216c1.071,0.095,2.142,0.19,3.212,0.285
				c-0.291,0.153-0.599,0.274-0.887,0.24c-1.094-0.13-2.18-0.329-3.274-0.462c-0.404-0.049-0.828-0.03-1.232,0.031
				c-0.525,0.08-1.035,0.258-1.56,0.348c-0.694,0.119-1.037,0.52-1.227,1.311c1.102,0,2.069,0,3.039,0
				c-1.323,1.05-2.764,1.851-3.922,3.348c2.005,0.108,3.796,0.157,5.502,0.715c-1.219,0.174-2.437,0.348-3.656,0.522
				c0.929,0.251,1.83,0.33,2.733,0.359c0.861,0.029,1.723,0.006,2.585,0.006c-2.697,1.133-5.422,2.141-8.421,2.069
				c1.995,0.155,3.98,0.189,5.956,0.334c3.353,0.247,5.199,0.707,5.649,1.325c-0.934-0.156-1.848-0.308-2.762-0.46
				c-0.018,0.095-0.035,0.19-0.053,0.285c1.494,0.253,2.988,0.505,4.482,0.758c-0.193,0.315-0.367,0.47-0.534,0.463
				c-1.091-0.049-2.181-0.136-3.271-0.205c-0.702-0.045-1.408-0.146-2.105-0.104c-0.983,0.059-1.96,0.222-2.938,0.353
				c-0.512,0.069-1.02,0.165-1.53,0.25c-0.02,0.118-0.041,0.235-0.061,0.353c0.639,0.293,1.257,0.66,1.924,0.858
				c0.698,0.207,1.445,0.251,2.17,0.367c-0.012,0.062-0.024,0.123-0.036,0.185c-0.644,0.353-1.289,0.706-1.933,1.059
				c4.53-1.834,9.171-2.154,13.637-1.326c-2.569,0.339-5.421,0.716-8.273,1.093c0.001,0.139,0.002,0.279,0.002,0.418
				c4.423,0.333,8.816,1.004,13.285,0.894c-0.53,0.14-1.061,0.16-1.586,0.229c-2.003,0.261-4.274-0.325-5.711,1.875
				c2.348,0.625,4.913-0.299,7.22,0.7c-0.007,0.1-0.014,0.201-0.021,0.301c-1.17,0-2.34,0-3.511,0c0,0.055,0,0.11,0,0.164
				c1.754,0.189,3.508,0.379,5.262,0.568c-0.001,0.095-0.002,0.19-0.004,0.285c-1.13,0-2.259,0-3.389,0
				c-0.001,0.082-0.001,0.163-0.002,0.245c1.759,0.608,3.606,0.05,5.412,0.278c-0.118,0.185-0.248,0.336-0.377,0.336
				c-1.569,0.001-3.14,0.014-4.707-0.051c-0.694-0.029-1.378-0.294-2.073-0.335c-1.809-0.108-3.621-0.162-5.433-0.214
				c-0.517-0.015-1.036,0.052-1.554,0.081c0.81,0.266,1.598,0.372,2.39,0.427c2.177,0.152,4.359,0.252,6.532,0.446
				c0.509,0.045,0.991,0.548,1.487,0.551c1.891,0.011,3.785-0.053,5.672-0.176c1.052-0.069,2.093-0.308,3.139-0.47
				c-0.164,0.303-0.385,0.512-0.647,0.613c-1.185,0.458-2.351,1.031-3.582,1.286c-1.447,0.3-2.951,0.354-4.434,0.436
				c-0.753,0.042-1.516-0.105-2.275-0.134c-0.65-0.025-1.302-0.005-1.953-0.005c-1.529,0-3.058,0-4.576,0
				c1.209,0.066,2.434,0.132,3.658,0.199c0.009,0.065,0.017,0.13,0.026,0.195c-0.952,0.286-1.904,0.571-2.869,0.861
				c3.248,0.145,6.456,0.287,9.664,0.43c-0.002,0.088-0.004,0.177-0.006,0.265c-0.992,0.368-1.984,0.737-2.867,1.065
				c2.626,0.381,5.381,0.945,8.34,0.162C86.162,92.223,85.813,92.534,85.464,92.845z M69.734,84.982
				c0.006-0.07,0.012-0.14,0.018-0.211c-1.169,0.098-2.339,0.196-3.508,0.294c0.01,0.104,0.019,0.207,0.029,0.311
				C67.427,85.244,68.581,85.113,69.734,84.982z M65.294,85.499c-0.907-0.303-1.816-0.558-2.746-0.379
				c-0.004,0.073-0.007,0.146-0.011,0.22C63.456,85.393,64.375,85.446,65.294,85.499z"/>
			<path fill="#F4F5F5" d="M85.464,92.845c0.349-0.311,0.698-0.622,1.162-1.036c-2.959,0.783-5.713,0.219-8.34-0.162
				c0.882-0.328,1.874-0.696,2.867-1.065c0.002-0.088,0.004-0.177,0.006-0.265c-3.208-0.143-6.416-0.286-9.664-0.43
				c0.965-0.29,1.917-0.575,2.869-0.861c-0.009-0.065-0.017-0.13-0.026-0.195c-1.225-0.067-2.45-0.133-3.658-0.199
				c1.518,0,3.047,0,4.576,0c0.651,0,1.303-0.02,1.953,0.005c0.76,0.03,1.522,0.176,2.275,0.134
				c1.484-0.083,2.987-0.136,4.434-0.436c1.23-0.255,2.397-0.828,3.582-1.286c0.262-0.101,0.483-0.31,0.647-0.613
				c-1.046,0.162-2.087,0.402-3.139,0.47c-1.887,0.123-3.781,0.187-5.672,0.176c-0.496-0.003-0.978-0.506-1.487-0.551
				c-2.173-0.194-4.355-0.294-6.532-0.446c-0.792-0.055-1.581-0.161-2.39-0.427c0.518-0.029,1.037-0.096,1.554-0.081
				c1.812,0.052,3.624,0.106,5.433,0.214c0.695,0.041,1.378,0.306,2.073,0.335c1.567,0.065,3.138,0.052,4.707,0.051
				c0.13,0,0.259-0.151,0.377-0.336c-1.806-0.228-3.652,0.33-5.412-0.278c0.001-0.082,0.001-0.163,0.002-0.245
				c1.13,0,2.259,0,3.389,0c0.001-0.095,0.002-0.19,0.004-0.285c-1.754-0.189-3.508-0.379-5.262-0.568c0-0.055,0-0.11,0-0.164
				c1.17,0,2.34,0,3.511,0c0.007-0.1,0.014-0.201,0.021-0.301c-2.306-1-4.871-0.075-7.22-0.7c1.437-2.199,3.707-1.613,5.711-1.875
				c0.525-0.069,1.057-0.089,1.586-0.229c-4.469,0.11-8.862-0.562-13.285-0.894c-0.001-0.139-0.002-0.279-0.002-0.418
				c2.852-0.377,5.704-0.753,8.273-1.093c-4.466-0.828-9.107-0.508-13.637,1.326c0.644-0.353,1.289-0.706,1.933-1.059
				c0.012-0.062,0.024-0.123,0.036-0.185c-0.725-0.115-1.472-0.16-2.17-0.367c-0.668-0.198-1.285-0.565-1.924-0.858
				c0.02-0.118,0.041-0.235,0.061-0.353c0.51-0.084,1.018-0.181,1.53-0.25c0.978-0.131,1.955-0.294,2.938-0.353
				c0.697-0.042,1.403,0.059,2.105,0.104c1.09,0.069,2.18,0.156,3.271,0.205c0.167,0.008,0.342-0.147,0.534-0.463
				c-1.494-0.253-2.988-0.505-4.482-0.758c0.018-0.095,0.035-0.19,0.053-0.285c0.914,0.152,1.828,0.304,2.762,0.46
				c-0.45-0.619-2.296-1.078-5.649-1.325c-1.976-0.145-3.961-0.179-5.956-0.334c2.999,0.072,5.724-0.936,8.421-2.069
				c-0.862,0-1.724,0.022-2.585-0.006c-0.903-0.03-1.804-0.109-2.733-0.359c1.219-0.174,2.437-0.348,3.656-0.522
				c-1.706-0.558-3.497-0.607-5.502-0.715c1.158-1.498,2.599-2.298,3.922-3.348c-0.97,0-1.937,0-3.039,0
				c0.19-0.79,0.533-1.191,1.227-1.311c0.525-0.09,1.035-0.268,1.56-0.348c0.404-0.061,0.828-0.081,1.232-0.031
				c1.094,0.133,2.18,0.332,3.274,0.462c0.289,0.034,0.596-0.088,0.887-0.24c-1.071-0.095-2.142-0.19-3.212-0.285
				c0.003-0.072,0.006-0.144,0.01-0.216c1.099,0,2.197,0,3.296,0c0.004-0.073,0.008-0.145,0.012-0.218
				c-0.661-0.067-1.328-0.224-1.982-0.184c-2.001,0.122-3.997,0.321-5.995,0.486c-0.192,0.016-0.43,0.07-0.571-0.016
				c-0.21-0.129-0.354-0.367-0.526-0.558c0.216-0.076,0.427-0.184,0.65-0.221c0.463-0.078,0.932-0.119,1.393-0.33
				c-0.703,0-1.406,0-2.165,0c0.061-0.156,0.084-0.289,0.117-0.291c0.8-0.056,1.625-0.245,2.397-0.115
				c2.433,0.408,4.851,0.258,7.28,0.05c0.886-0.076,1.777-0.09,2.666-0.132c-0.003-0.072-0.006-0.144-0.009-0.217
				c-0.494,0-0.987,0-1.481,0c-3.119,0-6.241,0.07-9.357-0.034c-1.28-0.042-2.573-0.375-3.81-0.743
				c-0.514-0.153-0.898-0.741-1.399-1.182c0.454-0.28,0.847-0.523,1.279-0.789c-0.842-0.044-1.633-0.086-2.423-0.128
				c-0.003-0.044-0.006-0.088-0.009-0.132c1.772-0.293,3.544-0.586,5.316-0.879c-0.002-0.071-0.005-0.142-0.007-0.213
				c-0.14-0.057-0.284-0.172-0.42-0.162c-1.068,0.079-2.133,0.192-3.2,0.275c-0.592,0.046-1.187,0.062-1.782,0.075
				c-0.416,0.009-0.834,0.015-1.246-0.03c-0.139-0.015-0.261-0.19-0.42-0.315c-0.392,0.104-0.848,0.225-1.304,0.345
				c-0.015-0.072-0.03-0.145-0.046-0.217c3.139-1.016,6.396-1.379,9.708-1.44c-0.008-0.092-0.017-0.184-0.025-0.277
				c-1.307,0-2.615,0-3.922,0c-0.025-0.085-0.05-0.169-0.076-0.254c0.886-0.537,1.754-1.107,2.667-1.593
				c0.377-0.201,0.847-0.283,1.281-0.313c2.582-0.181,5.167-0.332,7.751-0.492c-0.004-0.092-0.008-0.184-0.013-0.276
				c-1.105,0.05-2.209,0.099-3.398,0.153c0.16-0.127,0.288-0.23,0.54-0.431c-1.687-0.747-3.347-0.858-5.061-0.558
				c-0.028,0.005-0.055,0.019-0.083,0.02c-1.401,0.08-2.801,0.159-4.24,0.066c0.273-0.066,0.544-0.168,0.821-0.192
				c1.013-0.088,2.039-0.084,3.036-0.256c0.359-0.062,0.864-0.479,0.932-0.81c0.203-0.986,1.01-1.42,1.818-1.708
				c0.358-0.128,0.706-0.284,1.064-0.414c0.337-0.123,0.68-0.229,1.021-0.342c0.211-0.07,0.422-0.138,0.589-0.371
				c-1.554,0-3.107,0-4.661,0c-0.005-0.019-0.011-0.038-0.016-0.057c1.614-0.166,3.228-0.333,4.842-0.499
				c0-0.086-0.001-0.173-0.002-0.259c-1.346,0-2.693,0-4.068,0c0.234-0.138,0.466-0.275,0.698-0.412
				c-0.117-0.207-0.233-0.414-0.34-0.605c-1.164,0.472-2.347,0.951-3.493,1.416c0.179-0.648,0.928-0.74,1.526-1.022
				c0.834-0.393,1.666-0.789,2.497-1.187c0.152-0.073,0.302-0.238,0.445-0.23c1.143,0.064,2.039-0.598,3.039-0.963
				c0.544-0.199,1.164-0.22,1.753-0.252c0.715-0.039,1.239-0.269,1.723-0.865c1.6-1.967,3.783-2.625,6.244-2.536
				c0.037,0.001,0.072,0.077,0.122,0.134c-0.04,0.062-0.068,0.151-0.128,0.19c-0.971,0.636-1.987,1.212-2.903,1.919
				c-0.497,0.384-0.818,0.992-1.228,1.491c-0.28,0.341-0.576,0.669-0.879,1.017c0.338-0.122,0.742-0.227,1.109-0.408
				c0.733-0.361,1.479-0.714,2.16-1.161c0.769-0.505,1.455-1.136,2.21-1.666c0.726-0.508,1.494-0.957,2.243-1.431
				c0.057,0.069,0.114,0.138,0.171,0.207c-0.161,0.177-0.322,0.354-0.619,0.682c3.254-0.998,5.817,0.991,8.705,1.216
				c-0.018,0.111-0.035,0.221-0.053,0.332c-0.279-0.049-0.56-0.091-0.837-0.149c-0.606-0.127-1.098-0.027-1.644,0.368
				c-0.688,0.497-1.519,0.807-2.311,1.146c-0.701,0.3-1.45,0.491-2.144,0.805c-0.285,0.129-0.479,0.457-0.715,0.695
				c0.045,0.059,0.09,0.118,0.135,0.177c0.829-0.305,1.647-0.644,2.49-0.905c0.67-0.208,1.374-0.307,2.056-0.481
				c0.818-0.21,1.617-0.567,2.445-0.647c1.17-0.114,2.4-0.229,3.528,0.013c1.579,0.338,3.136,0.312,4.719,0.338
				c1.537,0.026,3.072,0.221,4.708,0.349c-0.135,0.321-0.195,0.463-0.235,0.558c1.926,0.167,3.92,0.104,5.792,1.475
				c-1.803,0.822-3.702,0.437-5.076,1.755c1.566-0.359,3.147-0.663,4.692-1.095c1.196-0.335,2.024-0.05,2.55,1.005
				c-0.548-0.292-1.183-0.631-1.817-0.97c-0.073,0.102-0.146,0.204-0.219,0.306c0.165,0.076,0.33,0.151,0.596,0.273
				c-1.579,0.58-3.24,0.155-4.588,1.057c1.922,0.435,3.86-0.859,5.83,0.14c-0.418,0.165-0.771,0.305-1.324,0.523
				c1.069,0.058,1.916,0.104,2.762,0.15c0.013,0.058,0.027,0.115,0.04,0.173c-1.618,0.286-3.236,0.573-4.854,0.859
				c0.003,0.072,0.006,0.144,0.008,0.216c1.85-0.13,3.7-0.261,5.549-0.391c0.023,0.112,0.046,0.224,0.069,0.336
				c-0.868,0.199-1.74,0.385-2.604,0.599c-0.887,0.22-1.766,0.468-2.649,0.703c0.026,0.114,0.052,0.228,0.078,0.341
				c1.08-0.204,2.159-0.414,3.24-0.61c1.026-0.186,2.05-0.445,3.084-0.498c0.473-0.024,0.967,0.369,1.429,0.768
				c-0.606,0.143-1.212,0.285-1.818,0.428c0.007,0.061,0.014,0.122,0.021,0.183c0.564,0.032,1.129,0.065,1.693,0.097
				c0.005,0.076,0.01,0.151,0.015,0.227c-0.521,0.092-1.042,0.184-1.563,0.275c0.885,0.323,1.767,0.197,2.571,0.92
				c1.254,1.127,1.431,2.634,1.9,4.055c0.104,0.316,0.127,0.669,0.131,1.006c0.014,1.078-0.939,2.02-2.014,2.127
				c-1.595,0.158-3.185,0.377-4.775,0.584c-0.229,0.03-0.448,0.139-0.671,0.212c0.016,0.085,0.032,0.17,0.048,0.254
				c1.127-0.197,2.253-0.394,3.38-0.591c0.019,0.09,0.039,0.179,0.058,0.269c-1.389,0.34-2.773,0.704-4.169,1.012
				c-0.897,0.198-1.64,0.61-2.227,1.335c2.802-0.754,5.604-1.508,8.406-2.264c0.081-0.022,0.162-0.061,0.23-0.109
				c0.606-0.427,1.17-0.535,1.635,0.365c0.121-0.63,0.212-1.103,0.32-1.667c0.434,1.37,0.15,2.062-1.035,2.484
				c-0.742,0.264-1.52,0.426-2.216,0.615c0.608,0.367,2.526-0.067,3.81-0.933c0.044,1.054-0.253,1.481-1.212,1.689
				c-0.68,0.147-1.367,0.264-2.032,0.553c0.872-0.049,1.743-0.099,2.615-0.148c0.027,0.095,0.055,0.19,0.082,0.284
				c-0.909,0.33-1.818,0.659-2.727,0.989c0.014,0.051,0.028,0.101,0.042,0.152c1.192-0.184,2.385-0.368,3.604-0.556
				c0.082,2.055-1.45,3.558-2.006,5.426c-0.157-0.093-0.288-0.17-0.627-0.371c0.311-0.546,0.699-1.224,1.086-1.903
				c-0.072-0.052-0.144-0.105-0.216-0.157c-0.507,0.418-1.027,0.821-1.516,1.259c-0.509,0.456-0.95,0.733-1.767,0.685
				c-2.808-0.167-5.506,0.432-8.129,1.493c-1.022,0.413-2.194,0.449-3.291,0.689c-0.486,0.106-0.954,0.293-1.408,0.535
				c1.436,0.294,2.727-0.363,4.078-0.591c1.424-0.24,2.831-0.58,4.256-0.807c1.378-0.22,2.77-0.351,4.156-0.521
				c0.025,0.088,0.051,0.176,0.076,0.264c-1.116,0.351-2.237,0.69-3.348,1.057c-0.868,0.286-1.725,0.605-2.586,0.91
				c0.025,0.076,0.049,0.153,0.074,0.229c1.974-0.371,3.948-0.741,5.923-1.112c0.018,0.084,0.036,0.167,0.054,0.251
				c-2.435,1.641-5.328,2.173-7.997,3.294c1.883,0.021,3.618-0.417,5.36-1.177c1.712-0.747,3.458-1.33,4.63-3.051
				c-0.211,1.742-0.712,2.34-2.215,2.772c-0.135,0.039-0.259,0.114-0.386,0.178c-0.76,0.382-1.497,0.82-2.284,1.133
				c-0.763,0.303-1.578,0.477-2.35,0.897c0.832-0.088,1.663-0.175,2.495-0.263c-1.441,0.823-3.475,0.201-4.602,2.185
				c1.219-0.358,2.277-0.675,3.339-0.98c1.067-0.306,2.138-0.599,3.057-0.855c-0.783,0.976-1.701,1.999-2.476,3.121
				c-0.789,1.141-2.028,1.586-3.087,2.323c-1.383,0.964-2.944,1.367-4.515,1.83c-0.426,0.126-0.728,0.672-1.089,1.027
				c0.096-0.245,0.203-0.521,0.333-0.853c-0.967-0.217-1.176,0.75-1.763,1.064c-0.061-0.059-0.121-0.118-0.182-0.177
				c1.187-1.185,2.374-2.369,3.56-3.554c-0.026-0.055-0.051-0.11-0.077-0.165c-0.251,0.134-0.521,0.244-0.751,0.407
				c-1.424,1.009-2.555,2.435-4.294,3.001c-0.143,0.046-0.239,0.231-0.36,0.348c-0.522,0.501-0.999,1.064-1.577,1.49
				c-1.504,1.108-3.044,2.169-4.591,3.217c-0.28,0.189-0.66,0.23-0.994,0.339C85.52,93.024,85.492,92.934,85.464,92.845z
				 M67.766,70.724c0.024,0.128,0.048,0.255,0.073,0.383c2.072-0.279,4.145-0.558,6.429-0.866c-1.672,0.815-3.158,1.539-4.643,2.263
				c0.032,0.066,0.064,0.133,0.096,0.199c0.914-0.273,1.899-0.41,2.728-0.845c2.487-1.304,5.23-1.028,7.859-1.439
				c0.601-0.094,1.205-0.165,1.808-0.247c-2.021-0.08-4.008,0.223-6.011-0.418c-0.84-0.269-1.861-0.097-2.778,0.03
				C71.465,70.042,69.618,70.405,67.766,70.724z M70.189,69.04c-0.002,0.088-0.004,0.176-0.005,0.264
				c0.235,0.025,0.472,0.089,0.703,0.069c1.296-0.11,2.589-0.254,3.885-0.36c1.244-0.101,2.505,0.328,3.745-0.18
				c0.711-0.292,1.47-0.468,2.208-0.696c-0.009-0.082-0.018-0.163-0.026-0.245c-0.571,0-1.145-0.035-1.713,0.007
				c-1.545,0.113-3.062,0.555-4.642,0.142c-1.253-0.328-2.548-0.497-3.825-0.736c-0.02,0.083-0.04,0.166-0.06,0.249
				c1.245,0.294,2.491,0.589,3.736,0.883c-0.003,0.035-0.006,0.071-0.008,0.106c-1.373,0-2.747,0-4.12,0c0,0.025,0,0.049,0,0.074
				c0.428,0.09,0.855,0.18,1.283,0.27c-0.005,0.031-0.009,0.061-0.014,0.092C70.953,68.999,70.571,69.02,70.189,69.04z
				 M87.701,49.301c-0.016-0.064-0.033-0.127-0.049-0.191c-0.542,0.067-1.133,0.017-1.616,0.222
				c-1.565,0.664-3.15,0.543-4.761,0.321c-1.082-0.149-2.168-0.261-3.252-0.39c-0.01,0.075-0.019,0.151-0.029,0.226
				c1.417,0.217,2.834,0.433,4.251,0.65c-0.006,0.07-0.012,0.14-0.018,0.21c-2.063,0.276-4.196-0.013-6.228,0.507
				c0.008,0.069,0.015,0.138,0.023,0.207c0.99-0.054,1.979-0.107,2.969-0.161c0.007,0.054,0.014,0.107,0.021,0.161
				c-0.276,0.091-0.552,0.182-0.972,0.321c0.243,0.038,0.327,0.072,0.405,0.06c1.792-0.273,3.583-0.557,5.377-0.823
				c0.248-0.037,0.51,0.034,0.762,0.011c0.782-0.073,1.562-0.168,2.343-0.254c-0.01-0.07-0.021-0.14-0.031-0.21
				c-0.816,0.083-1.633,0.166-2.449,0.249c-0.018-0.086-0.036-0.172-0.054-0.259C85.495,49.874,86.598,49.588,87.701,49.301z
				 M89.102,78.049c-0.004-0.042-0.008-0.085-0.013-0.127c0.64-0.06,1.279-0.153,1.92-0.174c1.62-0.053,3.201-0.456,4.878-0.09
				c0.869,0.19,1.906-0.391,2.867-0.624c-0.021-0.086-0.042-0.172-0.063-0.258c-3.472,0.39-6.996,0.33-10.433,1.022
				c0.008,0.102,0.017,0.204,0.025,0.305c0.906,0,1.812,0,2.718,0c-0.003-0.08-0.005-0.16-0.008-0.24
				C90.363,77.925,89.732,77.987,89.102,78.049z M106.254,55.393c-0.044-0.118-0.088-0.237-0.132-0.355
				c-2.233,1.176-4.886,1.152-7.245,2.665c1.495,0.383,2.385-0.696,3.502-0.847c1.171-0.158,2.349-0.259,3.525-0.385
				c0-0.052,0.001-0.104,0.001-0.156c-0.519,0-1.038,0-1.557,0c0.002-0.047,0.004-0.095,0.005-0.142
				C104.987,55.914,105.62,55.654,106.254,55.393z M79.556,59.053c-0.036-0.143-0.072-0.286-0.108-0.43
				c-2.752,0.34-5.522,0.55-8.221,1.255c1.24-0.052,2.465-0.205,3.695-0.311c1.229-0.106,2.463-0.149,3.693-0.252
				C78.933,59.288,79.243,59.143,79.556,59.053z M94.258,60.892c-0.015-0.129-0.029-0.259-0.044-0.388
				c-1.313-0.141-2.556,0.467-3.839,0.621c-1.335,0.16-2.76-0.108-3.96,0.854C89.03,61.616,91.644,61.254,94.258,60.892z
				 M103.633,59.354c-0.011-0.098-0.022-0.197-0.033-0.295c-2.443,0.274-4.887,0.547-7.33,0.821
				c0.003,0.123,0.005,0.246,0.008,0.368c1.129,0.068,2.257,0.136,3.386,0.204c0.004-0.071,0.007-0.143,0.011-0.214
				c-0.503-0.083-1.005-0.165-1.508-0.248c0.007-0.048,0.015-0.096,0.022-0.144C100.004,59.682,101.818,59.518,103.633,59.354z
				 M75.329,45.465c0.01,0.053,0.019,0.107,0.029,0.16c1.779-0.233,3.557-0.467,5.336-0.7c-0.003-0.08-0.007-0.159-0.01-0.239
				c-1.68,0.562-3.389-0.794-5.062,0.31c0.404,0,0.808,0,1.36,0C76.332,45.18,75.83,45.323,75.329,45.465z M105.491,80.806
				c-0.09-0.085-0.179-0.17-0.269-0.255c-1.13,1.206-2.26,2.413-3.389,3.619C103.685,83.659,104.46,82.108,105.491,80.806z
				 M106.926,57.614c-1.906-1.15-3.779-0.717-5.632,0C103.158,57.614,105.037,57.614,106.926,57.614z M92.368,67.542
				c-0.005,0.086-0.01,0.172-0.015,0.258c2.549-0.197,5.099-0.393,7.648-0.59c-0.008-0.126-0.016-0.252-0.025-0.379
				C97.44,67.069,94.904,67.305,92.368,67.542z M96.946,86.206c0.057,0.087,0.115,0.174,0.172,0.261
				c1.789-0.561,2.885-1.401,3.011-2.596C99.068,84.649,98.007,85.428,96.946,86.206z M69.587,44.562
				c0.938-0.485,2.09-1.08,3.242-1.675c-0.025-0.067-0.049-0.134-0.074-0.201c-0.422,0.109-0.857,0.183-1.264,0.333
				c-0.835,0.308-1.667,0.632-2.476,1.003c-0.268,0.123-0.461,0.408-0.823,0.744C68.74,44.686,69.068,44.638,69.587,44.562z
				 M72.44,79.67c2.018,0.038,3.996,0.78,6.015,0.21C76.46,79.365,74.436,79.615,72.44,79.67z M87.337,56.946
				c0.043-0.059,0.086-0.118,0.129-0.177c-1.156-1.343-3.349-2.614-4.32-2.479c0.723,0.434,1.43,0.841,2.118,1.277
				C85.964,56.013,86.646,56.486,87.337,56.946z M85.12,52.681c1.292-0.066,2.406-0.122,3.52-0.179
				C87.492,51.854,86.352,51.389,85.12,52.681z M89.384,74.649c1.366,0.657,2.753,0.571,3.911-0.208
				C91.845,74.519,90.614,74.584,89.384,74.649z M80.097,52.674c0.012,0.056,0.024,0.112,0.036,0.167
				c-0.235,0.111-0.471,0.221-0.706,0.332c0.017,0.051,0.034,0.103,0.051,0.154c0.929-0.252,1.858-0.504,2.787-0.756
				c-0.022-0.112-0.044-0.225-0.066-0.337c-1.22,0.083-2.441,0.166-3.661,0.248c0.005,0.09,0.009,0.18,0.014,0.27
				C79.067,52.727,79.582,52.701,80.097,52.674z M71.282,56.798c-0.877-0.794-3.368-1.132-4.242-0.708
				C68.538,56.34,69.91,56.569,71.282,56.798z M84.346,53.653c-0.041,0.107-0.083,0.213-0.124,0.32
				c1.249,0.424,2.497,0.847,3.746,1.271C87.05,53.916,85.536,54.225,84.346,53.653z M80.049,53.681
				c-1.449,0.022-3.599,1.149-3.867,1.966C77.441,55.007,78.671,54.381,80.049,53.681z M83.456,75.434
				c0.01,0.135,0.021,0.27,0.031,0.405c1.397-0.119,2.793-0.238,4.19-0.357c-0.007-0.093-0.014-0.185-0.021-0.278
				C86.255,75.281,84.856,75.357,83.456,75.434z M95.678,47.647c-1.197,0.128-2.392,0.321-3.19,1.675
				C93.667,48.704,94.673,48.176,95.678,47.647z M72.425,48.401c-0.004-0.112-0.008-0.224-0.013-0.337
				c-1.401,0.062-2.801,0.124-4.202,0.186c0.001,0.05,0.003,0.1,0.004,0.151C69.617,48.401,71.021,48.401,72.425,48.401z
				 M79.288,43.85c0.008-0.063,0.016-0.126,0.024-0.19c-0.865,0-1.731,0-2.596,0c0.002,0.063,0.003,0.126,0.005,0.19
				C77.576,43.85,78.432,43.85,79.288,43.85z M89.948,66.375c1.07,0,2.14,0,3.21,0c-0.003-0.085-0.006-0.169-0.009-0.254
				C92.079,65.941,91.017,66.24,89.948,66.375z M92.049,49.973c-0.02-0.128-0.041-0.256-0.061-0.384
				c-0.765,0.13-1.531,0.26-2.296,0.389c0.019,0.113,0.039,0.226,0.058,0.339C90.517,50.203,91.283,50.088,92.049,49.973z
				 M61.001,59.155c-1.001-0.72-1.73-0.485-2.618,0.163C59.327,59.26,60.071,59.213,61.001,59.155z M89.059,86.259
				c0.041,0.089,0.082,0.179,0.123,0.268c0.878-0.387,1.757-0.774,2.635-1.161c-0.042-0.092-0.085-0.184-0.127-0.276
				C90.813,85.48,89.936,85.869,89.059,86.259z M98.027,58.097c-0.005-0.069-0.01-0.137-0.015-0.206
				c-0.989,0.049-1.979,0.097-2.968,0.146c0.007,0.092,0.014,0.185,0.021,0.277C96.052,58.242,97.04,58.169,98.027,58.097z
				 M67.939,69.789c-0.001-0.084-0.002-0.167-0.003-0.251c-0.852,0.134-1.705,0.268-2.557,0.401c0.015,0.092,0.03,0.184,0.045,0.276
				C66.262,70.073,67.1,69.931,67.939,69.789z"/>
			<path fill="#F4F5F5" d="M69.734,84.982c-1.154,0.131-2.307,0.263-3.461,0.394c-0.01-0.104-0.019-0.207-0.029-0.311
				c1.169-0.098,2.339-0.196,3.508-0.294C69.747,84.841,69.74,84.911,69.734,84.982z"/>
			<path fill="#F4F5F5" d="M65.294,85.499c-0.919-0.053-1.838-0.106-2.757-0.159c0.004-0.073,0.007-0.146,0.011-0.22
				C63.478,84.941,64.387,85.196,65.294,85.499z"/>
			<path d="M67.766,70.724c1.852-0.319,3.699-0.682,5.56-0.939c0.917-0.127,1.938-0.299,2.778-0.03
				c2.003,0.641,3.991,0.338,6.011,0.418c-0.603,0.082-1.207,0.153-1.808,0.247c-2.63,0.41-5.372,0.135-7.859,1.439
				c-0.829,0.435-1.814,0.572-2.728,0.845c-0.032-0.066-0.064-0.133-0.096-0.199c1.485-0.724,2.971-1.448,4.643-2.263
				c-2.284,0.308-4.356,0.587-6.429,0.866C67.814,70.98,67.79,70.852,67.766,70.724z"/>
			<path d="M70.189,69.04c0.382-0.02,0.764-0.041,1.146-0.061c0.005-0.031,0.009-0.061,0.014-0.092
				c-0.428-0.09-0.855-0.18-1.283-0.27c0-0.025,0-0.049,0-0.074c1.373,0,2.747,0,4.12,0c0.003-0.035,0.006-0.071,0.008-0.106
				c-1.245-0.294-2.491-0.589-3.736-0.883c0.02-0.083,0.04-0.166,0.06-0.249c1.276,0.239,2.571,0.408,3.825,0.736
				c1.58,0.414,3.097-0.028,4.642-0.142c0.568-0.042,1.142-0.007,1.713-0.007c0.009,0.082,0.017,0.163,0.026,0.245
				c-0.737,0.228-1.496,0.404-2.208,0.696c-1.239,0.508-2.5,0.078-3.745,0.18c-1.296,0.106-2.589,0.25-3.885,0.36
				c-0.231,0.02-0.468-0.044-0.703-0.069C70.185,69.216,70.187,69.128,70.189,69.04z"/>
			<path d="M87.701,49.301c-1.103,0.286-2.206,0.573-3.309,0.859c0.018,0.086,0.036,0.172,0.054,0.259
				c0.816-0.083,1.633-0.166,2.449-0.249c0.01,0.07,0.021,0.14,0.031,0.21c-0.781,0.086-1.561,0.181-2.343,0.254
				c-0.252,0.024-0.514-0.047-0.762-0.011c-1.793,0.266-3.584,0.55-5.377,0.823c-0.077,0.012-0.162-0.022-0.405-0.06
				c0.419-0.138,0.696-0.23,0.972-0.321c-0.007-0.054-0.014-0.107-0.021-0.161c-0.99,0.054-1.979,0.107-2.969,0.161
				c-0.008-0.069-0.015-0.138-0.023-0.207c2.032-0.52,4.165-0.232,6.228-0.507c0.006-0.07,0.012-0.14,0.018-0.21
				c-1.417-0.217-2.834-0.433-4.251-0.65c0.01-0.075,0.019-0.151,0.029-0.226c1.084,0.129,2.171,0.241,3.252,0.39
				c1.611,0.222,3.196,0.342,4.761-0.321c0.483-0.205,1.074-0.155,1.616-0.222C87.668,49.174,87.685,49.238,87.701,49.301z"/>
			<path d="M89.102,78.049c0.63-0.062,1.261-0.124,1.891-0.186c0.003,0.08,0.005,0.16,0.008,0.24c-0.906,0-1.812,0-2.718,0
				c-0.008-0.102-0.017-0.204-0.025-0.305c3.438-0.692,6.961-0.632,10.433-1.022c0.021,0.086,0.042,0.172,0.063,0.258
				c-0.961,0.233-1.998,0.813-2.867,0.624c-1.677-0.366-3.258,0.037-4.878,0.09c-0.641,0.021-1.28,0.114-1.92,0.174
				C89.094,77.964,89.098,78.007,89.102,78.049z"/>
			<path d="M106.254,55.393c-0.634,0.26-1.267,0.521-1.901,0.781c-0.002,0.047-0.004,0.095-0.005,0.142c0.519,0,1.038,0,1.557,0
				c0,0.052-0.001,0.104-0.001,0.156c-1.175,0.126-2.354,0.227-3.525,0.385c-1.117,0.151-2.007,1.23-3.502,0.847
				c2.359-1.514,5.012-1.49,7.245-2.665C106.166,55.157,106.21,55.275,106.254,55.393z"/>
			<path d="M79.556,59.053c-0.314,0.091-0.623,0.236-0.943,0.262c-1.229,0.102-2.464,0.146-3.693,0.252
				c-1.23,0.106-2.455,0.259-3.695,0.311c2.699-0.705,5.469-0.915,8.221-1.255C79.484,58.766,79.52,58.909,79.556,59.053z"/>
			<path d="M94.258,60.892c-2.614,0.362-5.228,0.724-7.842,1.086c1.2-0.962,2.625-0.693,3.96-0.854
				c1.282-0.154,2.526-0.762,3.839-0.621C94.229,60.634,94.244,60.763,94.258,60.892z"/>
			<path d="M103.633,59.354c-1.815,0.164-3.629,0.328-5.444,0.493c-0.007,0.048-0.015,0.096-0.022,0.144
				c0.503,0.083,1.005,0.165,1.508,0.248c-0.004,0.071-0.007,0.143-0.011,0.214c-1.129-0.068-2.257-0.136-3.386-0.204
				c-0.003-0.123-0.005-0.246-0.008-0.368c2.443-0.274,4.887-0.547,7.33-0.821C103.611,59.157,103.622,59.255,103.633,59.354z"/>
			<path d="M75.329,45.465c0.502-0.143,1.004-0.285,1.653-0.47c-0.552,0-0.956,0-1.36,0c1.673-1.103,3.382,0.253,5.062-0.31
				c0.003,0.08,0.007,0.159,0.01,0.239c-1.779,0.233-3.557,0.467-5.336,0.7C75.348,45.572,75.338,45.519,75.329,45.465z"/>
			<path d="M105.491,80.806c-1.031,1.302-1.805,2.852-3.659,3.364c1.13-1.206,2.26-2.413,3.389-3.619
				C105.311,80.636,105.401,80.721,105.491,80.806z"/>
			<path d="M106.926,57.614c-1.89,0-3.769,0-5.632,0C103.148,56.897,105.021,56.464,106.926,57.614z"/>
			<path d="M92.368,67.542c2.536-0.237,5.072-0.474,7.608-0.711c0.008,0.126,0.016,0.252,0.025,0.379
				c-2.549,0.197-5.099,0.393-7.648,0.59C92.358,67.714,92.363,67.628,92.368,67.542z"/>
			<path d="M96.946,86.206c1.061-0.778,2.122-1.557,3.183-2.335c-0.127,1.195-1.223,2.034-3.011,2.596
				C97.061,86.38,97.003,86.293,96.946,86.206z"/>
			<path d="M69.587,44.562c-0.52,0.076-0.847,0.124-1.396,0.204c0.362-0.336,0.555-0.622,0.823-0.744
				c0.809-0.371,1.641-0.695,2.476-1.003c0.407-0.15,0.842-0.224,1.264-0.333c0.025,0.067,0.049,0.134,0.074,0.201
				C71.677,43.482,70.525,44.078,69.587,44.562z"/>
			<path d="M72.44,79.67c1.996-0.054,4.021-0.304,6.015,0.21C76.435,80.45,74.458,79.708,72.44,79.67z"/>
			<path d="M87.337,56.946c-0.69-0.46-1.373-0.934-2.074-1.378c-0.688-0.436-1.395-0.843-2.118-1.277
				c0.972-0.135,3.164,1.136,4.32,2.479C87.422,56.829,87.379,56.888,87.337,56.946z"/>
			<path d="M85.12,52.681c1.232-1.292,2.372-0.827,3.52-0.179C87.526,52.559,86.412,52.615,85.12,52.681z"/>
			<path d="M89.384,74.649c1.23-0.065,2.461-0.131,3.911-0.208C92.137,75.221,90.75,75.306,89.384,74.649z"/>
			<path d="M80.097,52.674c-0.515,0.026-1.03,0.052-1.546,0.078c-0.005-0.09-0.009-0.18-0.014-0.27
				c1.22-0.083,2.441-0.166,3.661-0.248c0.022,0.112,0.044,0.225,0.066,0.337c-0.929,0.252-1.858,0.504-2.787,0.756
				c-0.017-0.051-0.034-0.103-0.051-0.154c0.235-0.111,0.471-0.221,0.706-0.332C80.122,52.786,80.11,52.73,80.097,52.674z"/>
			<path d="M71.282,56.798c-1.372-0.229-2.744-0.458-4.242-0.708C67.914,55.666,70.405,56.004,71.282,56.798z"/>
			<path d="M84.346,53.653c1.19,0.571,2.705,0.263,3.621,1.59c-1.249-0.424-2.497-0.847-3.746-1.271
				C84.263,53.866,84.304,53.76,84.346,53.653z"/>
			<path d="M80.049,53.681c-1.378,0.701-2.608,1.326-3.867,1.966C76.45,54.829,78.601,53.703,80.049,53.681z"/>
			<path d="M83.456,75.434c1.4-0.077,2.8-0.153,4.2-0.23c0.007,0.093,0.014,0.185,0.021,0.278c-1.397,0.119-2.793,0.238-4.19,0.357
				C83.476,75.703,83.466,75.569,83.456,75.434z"/>
			<path d="M95.678,47.647c-1.006,0.528-2.011,1.057-3.19,1.675C93.287,47.968,94.481,47.776,95.678,47.647z"/>
			<path d="M72.425,48.401c-1.404,0-2.807,0-4.211,0c-0.001-0.05-0.003-0.1-0.004-0.151c1.401-0.062,2.801-0.124,4.202-0.186
				C72.416,48.177,72.42,48.289,72.425,48.401z"/>
			<path d="M79.288,43.85c-0.856,0-1.712,0-2.568,0c-0.002-0.063-0.003-0.126-0.005-0.19c0.865,0,1.731,0,2.596,0
				C79.304,43.723,79.296,43.787,79.288,43.85z"/>
			<path d="M89.948,66.375c1.069-0.135,2.13-0.434,3.201-0.254c0.003,0.085,0.006,0.169,0.009,0.254
				C92.089,66.375,91.018,66.375,89.948,66.375z"/>
			<path d="M92.049,49.973c-0.766,0.115-1.533,0.23-2.299,0.345c-0.019-0.113-0.039-0.226-0.058-0.339
				c0.765-0.13,1.531-0.26,2.296-0.389C92.009,49.717,92.029,49.845,92.049,49.973z"/>
			<path d="M61.001,59.155c-0.93,0.058-1.674,0.105-2.618,0.163C59.272,58.67,60.001,58.435,61.001,59.155z"/>
			<path d="M89.059,86.259c0.877-0.39,1.754-0.779,2.631-1.169c0.042,0.092,0.085,0.184,0.127,0.276
				c-0.878,0.387-1.757,0.774-2.635,1.161C89.14,86.438,89.099,86.349,89.059,86.259z"/>
			<path d="M98.027,58.097c-0.987,0.072-1.974,0.145-2.962,0.217c-0.007-0.092-0.014-0.185-0.021-0.277
				c0.989-0.049,1.979-0.097,2.968-0.146C98.017,57.959,98.022,58.028,98.027,58.097z"/>
			<path d="M67.939,69.789c-0.839,0.142-1.677,0.285-2.516,0.427c-0.015-0.092-0.03-0.184-0.045-0.276
				c0.852-0.134,1.705-0.268,2.557-0.401C67.937,69.621,67.938,69.705,67.939,69.789z"/>
		</g>
	</g>
</g>
</svg>
