<?xml version="1.0" encoding="utf-8"?>
<!-- Generator: Adobe Illustrator 17.0.0, SVG Export Plug-In . SVG Version: 6.00 Build 0)  -->
<!DOCTYPE svg PUBLIC "-//W3C//DTD SVG 1.1//EN" "http://www.w3.org/Graphics/SVG/1.1/DTD/svg11.dtd">
<svg version="1.1" id="Layer_1" xmlns="http://www.w3.org/2000/svg" xmlns:xlink="http://www.w3.org/1999/xlink" x="0px" y="0px"
	 width="69px" height="69px" viewBox="0 0 69 69" enable-background="new 0 0 69 69" xml:space="preserve">
<g>
	<path fill="#F4F5F5" d="M16.824,34.952c2.563,0,4.551,0.068,6.532-0.024c1.345-0.062,1.845,0.387,1.804,1.761
		c-0.081,2.72-0.051,5.444-0.015,8.166c0.069,5.269,3.584,8.934,8.5,8.906c4.93-0.027,8.337-3.671,8.387-9
		c0.025-2.722,0.056-5.446-0.013-8.166c-0.033-1.286,0.451-1.715,1.703-1.663c1.833,0.076,3.672,0.02,5.999,0.02
		c-5.675-6.561-10.983-12.698-16.445-19.013C27.796,22.27,22.515,28.375,16.824,34.952z"/>
	<path fill="#F4F5F5" d="M16.824,34.952c5.691-6.577,10.972-12.682,16.45-19.013c5.462,6.315,10.77,12.452,16.445,19.013
		c-2.327,0-4.166,0.057-5.999-0.02c-1.251-0.052-1.736,0.377-1.703,1.663c0.07,2.72,0.039,5.444,0.013,8.166
		c-0.05,5.329-3.457,8.972-8.387,9c-4.916,0.027-8.431-3.637-8.5-8.906c-0.036-2.722-0.066-5.446,0.015-8.166
		c0.041-1.374-0.459-1.823-1.804-1.761C21.375,35.02,19.387,34.952,16.824,34.952z"/>
</g>
</svg>
